<svg xmlns="http://www.w3.org/2000/svg" xmlns:xlink="http://www.w3.org/1999/xlink" width="500" zoomAndPan="magnify" viewBox="0 0 375 374.999991" height="500" preserveAspectRatio="xMidYMid meet" version="1.2"><defs/><g id="3aa5c65625"><rect x="0" width="375" y="0" height="374.999991" style="fill:#ffffff;fill-opacity:1;stroke:none;"/><rect x="0" width="375" y="0" height="374.999991" style="fill:#e1e1e1;fill-opacity:1;stroke:none;"/><g style="fill:#000000;fill-opacity:1;"><g transform="translate(110.52563, 257.77781)"><path style="stroke:none" d="M 153.875 27.625 C 140.425781 27.625 129.414062 23.335938 120.84375 14.765625 C 114.488281 8.410156 110.304688 0.421875 108.296875 -9.203125 C 98.242188 -1.585938 85.910156 2.21875 71.296875 2.21875 C 59.753906 2.21875 49.242188 -0.289062 39.765625 -5.3125 C 30.296875 -10.34375 22.890625 -17.25 17.546875 -26.03125 C 12.203125 -34.820312 9.53125 -44.722656 9.53125 -55.734375 C 9.53125 -66.742188 12.203125 -76.664062 17.546875 -85.5 C 22.890625 -94.34375 30.269531 -101.195312 39.6875 -106.0625 C 49.113281 -110.9375 59.648438 -113.375 71.296875 -113.375 C 85.910156 -113.375 98.773438 -109.773438 109.890625 -102.578125 L 113.0625 -80.1875 L 111.640625 -80.1875 C 108.460938 -92.46875 101.257812 -100.832031 90.03125 -105.28125 C 84.53125 -107.5 78.285156 -108.609375 71.296875 -108.609375 C 57.003906 -108.609375 45.117188 -103.632812 35.640625 -93.6875 C 26.171875 -83.738281 21.4375 -71.113281 21.4375 -55.8125 C 21.4375 -40.519531 26.195312 -27.84375 35.71875 -17.78125 C 45.25 -7.726562 57.109375 -2.648438 71.296875 -2.546875 C 78.179688 -2.546875 84.742188 -3.757812 90.984375 -6.1875 C 97.234375 -8.625 102.582031 -12.015625 107.03125 -16.359375 L 107.03125 -44.46875 C 107.03125 -46.789062 106.34375 -48.5625 104.96875 -49.78125 C 103.59375 -51 101.632812 -51.609375 99.09375 -51.609375 L 96.546875 -51.609375 L 96.546875 -53.203125 L 127.671875 -53.203125 L 127.671875 -51.609375 L 125.296875 -51.609375 C 122.648438 -51.609375 120.632812 -51 119.25 -49.78125 C 117.875 -48.5625 117.238281 -46.789062 117.34375 -44.46875 L 117.34375 -20.015625 C 117.976562 -3.285156 123.429688 8.675781 133.703125 15.875 C 140.898438 20.957031 150.21875 23.5 161.65625 23.5 C 166.414062 23.5 171.601562 23.023438 177.21875 22.078125 L 177.375 23.65625 C 168.90625 26.300781 161.070312 27.625 153.875 27.625 Z M 153.875 27.625 "/></g></g><g style="fill:#000000;fill-opacity:1;"><g transform="translate(160.572973, 241.631675)"><path style="stroke:none" d="M -12.546875 21.4375 C -9.691406 22.382812 -6.859375 22.859375 -4.046875 22.859375 C -1.242188 22.859375 1.6875 22.273438 4.75 21.109375 C 7.820312 19.953125 10.628906 18.128906 13.171875 15.640625 C 15.710938 13.148438 17.800781 9.414062 19.4375 4.4375 C 21.082031 -0.53125 21.90625 -6.40625 21.90625 -13.1875 L 21.90625 -99.5625 C 21.800781 -102.3125 20.769531 -104.664062 18.8125 -106.625 C 16.851562 -108.582031 14.5 -109.5625 11.75 -109.5625 L 9.6875 -109.5625 L 9.6875 -111.15625 L 44.453125 -111.15625 L 44.453125 -109.5625 L 42.390625 -109.5625 C 39.640625 -109.5625 37.285156 -108.609375 35.328125 -106.703125 C 33.367188 -104.804688 32.335938 -102.425781 32.234375 -99.5625 L 32.234375 -12.703125 C 32.234375 -5.503906 31.117188 0.789062 28.890625 6.1875 C 26.671875 11.59375 23.867188 15.671875 20.484375 18.421875 C 14.128906 23.398438 7.085938 25.890625 -0.640625 25.890625 C -5.191406 25.890625 -9.375 24.988281 -13.1875 23.1875 Z M -12.546875 21.4375 "/></g></g><path style=" stroke:none;fill-rule:nonzero;fill:#e1e1e1;fill-opacity:1;" d="M 92.550781 185.246094 L 282.148438 185.246094 C 283.207031 185.246094 284.226562 185.667969 284.972656 186.417969 C 285.722656 187.167969 286.144531 188.183594 286.144531 189.246094 L 286.144531 197.238281 C 286.144531 198.300781 285.722656 199.316406 284.972656 200.066406 C 284.226562 200.816406 283.207031 201.238281 282.148438 201.238281 L 92.550781 201.238281 C 90.34375 201.238281 88.554688 199.449219 88.554688 197.238281 L 88.554688 189.246094 C 88.554688 187.039062 90.34375 185.246094 92.550781 185.246094 Z M 92.550781 185.246094 "/><g style="fill:#000000;fill-opacity:1;"><g transform="translate(96.409057, 196.248342)"><path style="stroke:none" d="M 1.90625 0.09375 C 1.375 0.09375 0.914062 -0.0351562 0.53125 -0.296875 C 0.144531 -0.554688 -0.109375 -0.921875 -0.234375 -1.390625 L 0.828125 -1.875 C 0.929688 -1.601562 1.066406 -1.394531 1.234375 -1.25 C 1.410156 -1.113281 1.632812 -1.046875 1.90625 -1.046875 C 2.5 -1.046875 2.796875 -1.414062 2.796875 -2.15625 L 2.796875 -7.109375 L 4.109375 -7.109375 L 4.109375 -2.28125 C 4.109375 -1.519531 3.921875 -0.929688 3.546875 -0.515625 C 3.171875 -0.109375 2.625 0.09375 1.90625 0.09375 Z M 1.90625 0.09375 "/></g></g><g style="fill:#000000;fill-opacity:1;"><g transform="translate(108.83536, 196.248342)"><path style="stroke:none" d="M 3.890625 0.09375 C 3.171875 0.09375 2.550781 -0.0390625 2.03125 -0.3125 C 1.519531 -0.59375 1.128906 -0.992188 0.859375 -1.515625 C 0.585938 -2.046875 0.453125 -2.679688 0.453125 -3.421875 C 0.453125 -4.160156 0.597656 -4.816406 0.890625 -5.390625 C 1.179688 -5.960938 1.59375 -6.410156 2.125 -6.734375 C 2.664062 -7.054688 3.304688 -7.21875 4.046875 -7.21875 C 4.703125 -7.21875 5.273438 -7.066406 5.765625 -6.765625 C 6.265625 -6.472656 6.648438 -6.0625 6.921875 -5.53125 C 7.191406 -5.007812 7.328125 -4.398438 7.328125 -3.703125 C 7.328125 -2.929688 7.175781 -2.257812 6.875 -1.6875 C 6.582031 -1.125 6.175781 -0.6875 5.65625 -0.375 C 5.144531 -0.0625 4.554688 0.09375 3.890625 0.09375 Z M 3.859375 -1.078125 C 4.273438 -1.078125 4.644531 -1.179688 4.96875 -1.390625 C 5.289062 -1.597656 5.546875 -1.894531 5.734375 -2.28125 C 5.921875 -2.664062 6.015625 -3.140625 6.015625 -3.703125 C 6.015625 -4.410156 5.832031 -4.976562 5.46875 -5.40625 C 5.101562 -5.832031 4.617188 -6.046875 4.015625 -6.046875 C 3.578125 -6.046875 3.191406 -5.9375 2.859375 -5.71875 C 2.523438 -5.5 2.257812 -5.195312 2.0625 -4.8125 C 1.863281 -4.425781 1.765625 -3.972656 1.765625 -3.453125 C 1.765625 -2.691406 1.953125 -2.101562 2.328125 -1.6875 C 2.703125 -1.28125 3.210938 -1.078125 3.859375 -1.078125 Z M 3.859375 -1.078125 "/></g></g><g style="fill:#000000;fill-opacity:1;"><g transform="translate(124.234003, 196.248342)"><path style="stroke:none" d="M 5.25 -7.109375 L 6.546875 -7.109375 L 3.953125 0 L 2.140625 0 L -0.015625 -7.109375 L 1.375 -7.109375 L 3.125 -1.09375 Z M 5.25 -7.109375 "/></g></g><g style="fill:#000000;fill-opacity:1;"><g transform="translate(138.141469, 196.248342)"><path style="stroke:none" d="M -0.09375 0 L 2.9375 -7.109375 L 4.03125 -7.109375 L 6.953125 0 L 5.625 0 L 4.984375 -1.625 L 1.890625 -1.625 L 1.21875 0 Z M 2.328125 -2.71875 L 4.5625 -2.71875 L 3.46875 -5.515625 Z M 2.328125 -2.71875 "/></g></g><g style="fill:#000000;fill-opacity:1;"><g transform="translate(152.649406, 196.248342)"><path style="stroke:none" d="M 5.40625 -7.109375 L 6.65625 -7.109375 L 6.65625 0 L 5.515625 0 L 1.984375 -4.953125 L 1.984375 0 L 0.734375 0 L 0.734375 -7.109375 L 1.875 -7.109375 L 5.40625 -2.15625 Z M 5.40625 -7.109375 "/></g></g><g style="fill:#000000;fill-opacity:1;"><g transform="translate(167.657736, 196.248342)"><path style="stroke:none" d="M 5.40625 -7.109375 L 6.65625 -7.109375 L 6.65625 0 L 5.515625 0 L 1.984375 -4.953125 L 1.984375 0 L 0.734375 0 L 0.734375 -7.109375 L 1.875 -7.109375 L 5.40625 -2.15625 Z M 5.40625 -7.109375 "/></g></g><g style="fill:#000000;fill-opacity:1;"><g transform="translate(182.666066, 196.248342)"><path style="stroke:none" d="M -0.09375 0 L 2.9375 -7.109375 L 4.03125 -7.109375 L 6.953125 0 L 5.625 0 L 4.984375 -1.625 L 1.890625 -1.625 L 1.21875 0 Z M 2.328125 -2.71875 L 4.5625 -2.71875 L 3.46875 -5.515625 Z M 2.328125 -2.71875 "/></g></g><g style="fill:#000000;fill-opacity:1;"><g transform="translate(197.174004, 196.248342)"><path style="stroke:none" d=""/></g></g><g style="fill:#000000;fill-opacity:1;"><g transform="translate(207.22845, 196.248342)"><path style="stroke:none" d="M 4.203125 -3.703125 L 7.015625 -3.703125 L 7.015625 0 L 5.984375 0 L 5.875 -0.765625 C 5.644531 -0.453125 5.347656 -0.226562 4.984375 -0.09375 C 4.628906 0.03125 4.234375 0.09375 3.796875 0.09375 C 3.117188 0.09375 2.523438 -0.046875 2.015625 -0.328125 C 1.515625 -0.609375 1.128906 -1.007812 0.859375 -1.53125 C 0.585938 -2.0625 0.453125 -2.691406 0.453125 -3.421875 C 0.453125 -4.171875 0.601562 -4.828125 0.90625 -5.390625 C 1.21875 -5.960938 1.660156 -6.410156 2.234375 -6.734375 C 2.804688 -7.054688 3.476562 -7.21875 4.25 -7.21875 C 4.875 -7.21875 5.410156 -7.097656 5.859375 -6.859375 C 6.304688 -6.628906 6.675781 -6.28125 6.96875 -5.8125 L 5.96875 -5.078125 C 5.789062 -5.398438 5.546875 -5.632812 5.234375 -5.78125 C 4.929688 -5.9375 4.597656 -6.015625 4.234375 -6.015625 C 3.734375 -6.015625 3.300781 -5.90625 2.9375 -5.6875 C 2.570312 -5.476562 2.289062 -5.175781 2.09375 -4.78125 C 1.894531 -4.394531 1.796875 -3.945312 1.796875 -3.4375 C 1.796875 -2.6875 1.984375 -2.101562 2.359375 -1.6875 C 2.742188 -1.28125 3.265625 -1.078125 3.921875 -1.078125 C 4.234375 -1.078125 4.53125 -1.132812 4.8125 -1.25 C 5.09375 -1.363281 5.320312 -1.53125 5.5 -1.75 C 5.675781 -1.976562 5.765625 -2.253906 5.765625 -2.578125 L 5.765625 -2.640625 L 4.203125 -2.640625 Z M 4.203125 -3.703125 "/></g></g><g style="fill:#000000;fill-opacity:1;"><g transform="translate(222.376891, 196.248342)"><path style="stroke:none" d="M 6.34375 -1.234375 L 6.65625 -0.234375 C 6.519531 -0.128906 6.351562 -0.0507812 6.15625 0 C 5.96875 0.0625 5.765625 0.09375 5.546875 0.09375 C 4.796875 0.09375 4.207031 -0.238281 3.78125 -0.90625 L 2.75 -2.484375 C 2.644531 -2.648438 2.535156 -2.765625 2.421875 -2.828125 C 2.304688 -2.898438 2.179688 -2.9375 2.046875 -2.9375 L 2 -2.9375 L 2 0 L 0.734375 0 L 0.734375 -7.109375 L 2.9375 -7.109375 C 3.84375 -7.109375 4.523438 -6.921875 4.984375 -6.546875 C 5.453125 -6.171875 5.6875 -5.660156 5.6875 -5.015625 C 5.6875 -4.617188 5.597656 -4.273438 5.421875 -3.984375 C 5.253906 -3.703125 5.019531 -3.476562 4.71875 -3.3125 C 4.414062 -3.144531 4.078125 -3.039062 3.703125 -3 C 3.898438 -2.882812 4.082031 -2.703125 4.25 -2.453125 L 4.8125 -1.625 C 4.957031 -1.40625 5.09375 -1.253906 5.21875 -1.171875 C 5.351562 -1.097656 5.519531 -1.0625 5.71875 -1.0625 C 5.945312 -1.0625 6.15625 -1.117188 6.34375 -1.234375 Z M 2.859375 -6.046875 L 2 -6.046875 L 2 -3.953125 L 2.796875 -3.953125 C 3.335938 -3.953125 3.738281 -4.035156 4 -4.203125 C 4.257812 -4.367188 4.390625 -4.640625 4.390625 -5.015625 C 4.390625 -5.703125 3.878906 -6.046875 2.859375 -6.046875 Z M 2.859375 -6.046875 "/></g></g><g style="fill:#000000;fill-opacity:1;"><g transform="translate(236.274355, 196.248342)"><path style="stroke:none" d="M 0.734375 0 L 0.734375 -7.109375 L 2.03125 -7.109375 L 2.03125 0 Z M 0.734375 0 "/></g></g><g style="fill:#000000;fill-opacity:1;"><g transform="translate(246.659055, 196.248342)"><path style="stroke:none" d="M 2.9375 0.09375 C 2.101562 0.09375 1.453125 -0.09375 0.984375 -0.46875 C 0.523438 -0.84375 0.257812 -1.390625 0.1875 -2.109375 L 1.40625 -2.296875 C 1.53125 -1.441406 2.0625 -1.015625 3 -1.015625 C 3.40625 -1.015625 3.722656 -1.09375 3.953125 -1.25 C 4.179688 -1.414062 4.296875 -1.644531 4.296875 -1.9375 C 4.296875 -2.207031 4.179688 -2.410156 3.953125 -2.546875 C 3.722656 -2.679688 3.359375 -2.8125 2.859375 -2.9375 C 2.390625 -3.050781 1.988281 -3.1875 1.65625 -3.34375 C 1.320312 -3.5 1.066406 -3.707031 0.890625 -3.96875 C 0.710938 -4.238281 0.625 -4.59375 0.625 -5.03125 C 0.625 -5.457031 0.734375 -5.832031 0.953125 -6.15625 C 1.171875 -6.488281 1.46875 -6.75 1.84375 -6.9375 C 2.226562 -7.125 2.671875 -7.21875 3.171875 -7.21875 C 3.835938 -7.21875 4.378906 -7.039062 4.796875 -6.6875 C 5.210938 -6.34375 5.457031 -5.867188 5.53125 -5.265625 L 4.390625 -5.0625 C 4.253906 -5.757812 3.828125 -6.109375 3.109375 -6.109375 C 2.765625 -6.109375 2.484375 -6.015625 2.265625 -5.828125 C 2.046875 -5.648438 1.9375 -5.414062 1.9375 -5.125 C 1.9375 -4.832031 2.039062 -4.609375 2.25 -4.453125 C 2.46875 -4.296875 2.835938 -4.15625 3.359375 -4.03125 C 3.816406 -3.925781 4.210938 -3.800781 4.546875 -3.65625 C 4.878906 -3.519531 5.132812 -3.320312 5.3125 -3.0625 C 5.5 -2.8125 5.59375 -2.460938 5.59375 -2.015625 C 5.59375 -1.609375 5.476562 -1.242188 5.25 -0.921875 C 5.03125 -0.609375 4.722656 -0.359375 4.328125 -0.171875 C 3.929688 0.00390625 3.46875 0.09375 2.9375 0.09375 Z M 2.9375 0.09375 "/></g></g><g style="fill:#000000;fill-opacity:1;"><g transform="translate(260.14619, 196.248342)"><path style="stroke:none" d="M 5.3125 -5.984375 L 2 -5.984375 L 2 -4.15625 L 5.140625 -4.15625 L 5.140625 -3.03125 L 2 -3.03125 L 2 -1.125 L 5.421875 -1.125 L 5.34375 0 L 0.734375 0 L 0.734375 -7.109375 L 5.3125 -7.109375 Z M 5.3125 -5.984375 "/></g></g><g style="fill:#000000;fill-opacity:1;"><g transform="translate(273.423167, 196.248342)"><path style="stroke:none" d="M 0.734375 0 L 0.734375 -7.109375 L 2.03125 -7.109375 L 2.03125 -1.140625 L 5.203125 -1.140625 L 5.109375 0 Z M 0.734375 0 "/></g></g></g></svg>